<svg xmlns="http://www.w3.org/2000/svg" xmlns:xlink="http://www.w3.org/1999/xlink" width="250" zoomAndPan="magnify" viewBox="0 0 187.5 112.499997" height="150" preserveAspectRatio="xMidYMid meet" version="1.0"><defs><g/><clipPath id="id1"><path d="M 24.40625 25.222656 L 76 25.222656 L 76 87 L 24.40625 87 Z M 24.40625 25.222656 " clip-rule="nonzero"/></clipPath></defs><g fill="rgb(0%, 39.99939%, 100%)" fill-opacity="1"><g transform="translate(75.941669, 71.476113)"><g><path d="M 8.703125 -17.609375 L 10.84375 -8.578125 L 11.640625 -4.46875 L 12.28125 -8.578125 L 14.1875 -17.609375 L 19.953125 -17.609375 L 22.203125 0 L 17.96875 0 L 17.15625 -9.359375 L 16.890625 -14.421875 L 15.78125 -9.21875 L 13.421875 0.109375 L 9.53125 0.109375 L 6.96875 -9.21875 L 5.8125 -14.421875 L 5.5 -9.359375 L 4.8125 0 L 0.734375 0.015625 L 2.78125 -17.609375 Z M 8.703125 -17.609375 "/></g></g></g><g fill="rgb(0%, 39.99939%, 100%)" fill-opacity="1"><g transform="translate(98.855416, 71.476113)"><g><path d="M 13.140625 -8.015625 C 13.140625 -7.046875 13.09375 -6.238281 13 -5.59375 L 5.265625 -5.59375 C 5.359375 -4.632812 5.679688 -3.9375 6.234375 -3.5 C 6.785156 -3.0625 7.5625 -2.84375 8.5625 -2.84375 C 9.1875 -2.84375 9.847656 -2.910156 10.546875 -3.046875 C 11.253906 -3.179688 11.769531 -3.335938 12.09375 -3.515625 L 12.75 -1.234375 C 12.28125 -0.847656 11.570312 -0.515625 10.625 -0.234375 C 9.6875 0.046875 8.660156 0.1875 7.546875 0.1875 C 6.148438 0.1875 4.957031 -0.0820312 3.96875 -0.625 C 2.988281 -1.175781 2.242188 -1.960938 1.734375 -2.984375 C 1.234375 -4.003906 0.984375 -5.226562 0.984375 -6.65625 C 0.984375 -7.9375 1.242188 -9.085938 1.765625 -10.109375 C 2.296875 -11.128906 3.054688 -11.925781 4.046875 -12.5 C 5.046875 -13.082031 6.226562 -13.375 7.59375 -13.375 C 9.21875 -13.375 10.539062 -12.96875 11.5625 -12.15625 C 12.59375 -11.34375 13.117188 -9.960938 13.140625 -8.015625 Z M 9.171875 -7.71875 C 9.179688 -7.84375 9.1875 -8.007812 9.1875 -8.21875 C 9.1875 -9.03125 9.050781 -9.628906 8.78125 -10.015625 C 8.519531 -10.410156 8.09375 -10.609375 7.5 -10.609375 C 6.863281 -10.609375 6.363281 -10.390625 6 -9.953125 C 5.632812 -9.515625 5.398438 -8.769531 5.296875 -7.71875 Z M 9.171875 -7.71875 "/></g></g></g><g fill="rgb(0%, 39.99939%, 100%)" fill-opacity="1"><g transform="translate(112.971301, 71.476113)"><g><path d="M 6.171875 -19.21875 L 6.171875 0 L 1.890625 0 L 1.890625 -19.21875 Z M 6.171875 -19.21875 "/></g></g></g><g fill="rgb(0%, 39.99939%, 100%)" fill-opacity="1"><g transform="translate(121.029263, 71.476113)"><g><path d="M 7.28125 -13.421875 C 8.6875 -13.421875 9.800781 -13.253906 10.625 -12.921875 C 11.457031 -12.597656 12.0625 -12.070312 12.4375 -11.34375 C 12.8125 -10.625 13 -9.65625 13 -8.4375 L 13 0.1875 L 10.3125 0.1875 C 9.96875 0.1875 9.707031 0.160156 9.53125 0.109375 C 9.351562 0.0664062 9.210938 -0.0351562 9.109375 -0.203125 C 9.015625 -0.378906 8.96875 -0.648438 8.96875 -1.015625 L 8.96875 -1.109375 C 7.976562 -0.242188 6.75 0.1875 5.28125 0.1875 C 4.425781 0.1875 3.671875 0.0078125 3.015625 -0.34375 C 2.367188 -0.707031 1.867188 -1.207031 1.515625 -1.84375 C 1.160156 -2.488281 0.984375 -3.21875 0.984375 -4.03125 C 0.984375 -4.789062 1.191406 -5.457031 1.609375 -6.03125 C 2.035156 -6.601562 2.617188 -7.050781 3.359375 -7.375 C 4.078125 -7.675781 4.894531 -7.882812 5.8125 -8 C 6.726562 -8.113281 7.707031 -8.171875 8.75 -8.171875 L 8.75 -8.96875 C 8.75 -9.351562 8.679688 -9.644531 8.546875 -9.84375 C 8.421875 -10.050781 8.191406 -10.191406 7.859375 -10.265625 C 7.523438 -10.347656 7.019531 -10.390625 6.34375 -10.390625 C 5.84375 -10.390625 5.195312 -10.296875 4.40625 -10.109375 C 3.613281 -9.929688 2.929688 -9.710938 2.359375 -9.453125 L 1.484375 -11.96875 C 1.835938 -12.175781 2.328125 -12.390625 2.953125 -12.609375 C 3.578125 -12.835938 4.269531 -13.03125 5.03125 -13.1875 C 5.800781 -13.34375 6.550781 -13.421875 7.28125 -13.421875 Z M 7.078125 -2.453125 C 7.398438 -2.453125 7.722656 -2.507812 8.046875 -2.625 C 8.378906 -2.738281 8.613281 -2.863281 8.75 -3 L 8.75 -6.109375 C 8.332031 -6.097656 7.898438 -6.050781 7.453125 -5.96875 C 7.003906 -5.894531 6.664062 -5.804688 6.4375 -5.703125 C 6.125 -5.578125 5.875 -5.40625 5.6875 -5.1875 C 5.5 -4.976562 5.40625 -4.664062 5.40625 -4.25 C 5.40625 -3.65625 5.566406 -3.207031 5.890625 -2.90625 C 6.210938 -2.601562 6.609375 -2.453125 7.078125 -2.453125 Z M 7.078125 -2.453125 "/></g></g></g><g fill="rgb(0%, 39.99939%, 100%)" fill-opacity="1"><g transform="translate(135.630707, 71.476113)"><g><path d="M 5.90625 -9.21875 L 6.59375 -10.265625 L 1.390625 -10.265625 L 1.40625 -13.1875 L 11.859375 -13.1875 L 12.265625 -12.09375 L 7.09375 -4.078125 L 6.328125 -3 L 12.015625 -3 L 12.015625 0 L 1.09375 0 L 0.59375 -0.953125 Z M 5.90625 -9.21875 "/></g></g></g><g fill="rgb(0%, 39.99939%, 100%)" fill-opacity="1"><g transform="translate(148.46333, 71.476113)"><g><path d="M 7.28125 -13.421875 C 8.6875 -13.421875 9.800781 -13.253906 10.625 -12.921875 C 11.457031 -12.597656 12.0625 -12.070312 12.4375 -11.34375 C 12.8125 -10.625 13 -9.65625 13 -8.4375 L 13 0.1875 L 10.3125 0.1875 C 9.96875 0.1875 9.707031 0.160156 9.53125 0.109375 C 9.351562 0.0664062 9.210938 -0.0351562 9.109375 -0.203125 C 9.015625 -0.378906 8.96875 -0.648438 8.96875 -1.015625 L 8.96875 -1.109375 C 7.976562 -0.242188 6.75 0.1875 5.28125 0.1875 C 4.425781 0.1875 3.671875 0.0078125 3.015625 -0.34375 C 2.367188 -0.707031 1.867188 -1.207031 1.515625 -1.84375 C 1.160156 -2.488281 0.984375 -3.21875 0.984375 -4.03125 C 0.984375 -4.789062 1.191406 -5.457031 1.609375 -6.03125 C 2.035156 -6.601562 2.617188 -7.050781 3.359375 -7.375 C 4.078125 -7.675781 4.894531 -7.882812 5.8125 -8 C 6.726562 -8.113281 7.707031 -8.171875 8.75 -8.171875 L 8.75 -8.96875 C 8.75 -9.351562 8.679688 -9.644531 8.546875 -9.84375 C 8.421875 -10.050781 8.191406 -10.191406 7.859375 -10.265625 C 7.523438 -10.347656 7.019531 -10.390625 6.34375 -10.390625 C 5.84375 -10.390625 5.195312 -10.296875 4.40625 -10.109375 C 3.613281 -9.929688 2.929688 -9.710938 2.359375 -9.453125 L 1.484375 -11.96875 C 1.835938 -12.175781 2.328125 -12.390625 2.953125 -12.609375 C 3.578125 -12.835938 4.269531 -13.03125 5.03125 -13.1875 C 5.800781 -13.34375 6.550781 -13.421875 7.28125 -13.421875 Z M 7.078125 -2.453125 C 7.398438 -2.453125 7.722656 -2.507812 8.046875 -2.625 C 8.378906 -2.738281 8.613281 -2.863281 8.75 -3 L 8.75 -6.109375 C 8.332031 -6.097656 7.898438 -6.050781 7.453125 -5.96875 C 7.003906 -5.894531 6.664062 -5.804688 6.4375 -5.703125 C 6.125 -5.578125 5.875 -5.40625 5.6875 -5.1875 C 5.5 -4.976562 5.40625 -4.664062 5.40625 -4.25 C 5.40625 -3.65625 5.566406 -3.207031 5.890625 -2.90625 C 6.210938 -2.601562 6.609375 -2.453125 7.078125 -2.453125 Z M 7.078125 -2.453125 "/></g></g></g><g clip-path="url(#id1)"><path fill="rgb(0%, 39.99939%, 100%)" d="M 74.527344 42.191406 C 73.511719 41.03125 72.046875 40.355469 70.503906 40.355469 L 62.785156 40.355469 L 62.785156 38.398438 C 62.785156 31.445312 57.136719 25.800781 50.207031 25.800781 C 43.28125 25.800781 37.632812 31.460938 37.632812 38.398438 L 37.632812 40.355469 L 29.910156 40.355469 C 28.371094 40.355469 26.902344 41.03125 25.890625 42.191406 C 24.878906 43.355469 24.421875 44.914062 24.628906 46.441406 L 29.484375 81.285156 C 29.925781 84.460938 32.671875 86.84375 35.855469 86.84375 L 64.53125 86.84375 C 67.714844 86.84375 70.460938 84.460938 70.914062 81.285156 L 75.773438 46.441406 C 76.007812 44.914062 75.539062 43.367188 74.527344 42.191406 Z M 42.035156 38.398438 C 42.035156 33.886719 45.703125 30.210938 50.207031 30.210938 C 54.714844 30.210938 58.382812 33.886719 58.382812 38.398438 L 58.382812 40.355469 L 42.035156 40.355469 Z M 55.609375 72.390625 L 50.5 67.273438 L 46.921875 70.859375 L 42.210938 55.542969 L 57.5 60.261719 L 53.921875 63.847656 L 59.027344 68.964844 Z M 55.609375 72.390625 " fill-opacity="1" fill-rule="nonzero"/></g></svg>