<svg xmlns="http://www.w3.org/2000/svg" xmlns:xlink="http://www.w3.org/1999/xlink" width="100" zoomAndPan="magnify" viewBox="0 0 75 74.999997" height="100" preserveAspectRatio="xMidYMid meet" version="1.0"><defs><clipPath id="id1"><path d="M 3.796875 8 L 68 8 L 68 71.667969 L 3.796875 71.667969 Z M 3.796875 8 " clip-rule="nonzero"/></clipPath></defs><path fill="#363062" d="M 41.765625 27.371094 C 41.765625 27.089844 41.710938 26.820312 41.605469 26.5625 C 41.496094 26.304688 41.34375 26.074219 41.148438 25.878906 C 40.949219 25.679688 40.722656 25.527344 40.460938 25.421875 C 40.203125 25.3125 39.933594 25.261719 39.65625 25.261719 C 39.375 25.261719 39.105469 25.3125 38.847656 25.421875 C 38.589844 25.527344 38.363281 25.679688 38.164062 25.878906 C 37.964844 26.074219 37.8125 26.304688 37.707031 26.5625 C 37.597656 26.820312 37.546875 27.089844 37.546875 27.371094 L 37.546875 33.699219 L 31.21875 33.699219 C 30.9375 33.699219 30.667969 33.75 30.410156 33.859375 C 30.152344 33.964844 29.925781 34.117188 29.726562 34.316406 C 29.527344 34.511719 29.375 34.742188 29.269531 35 C 29.160156 35.257812 29.109375 35.527344 29.109375 35.808594 C 29.109375 36.085938 29.160156 36.355469 29.269531 36.613281 C 29.375 36.871094 29.527344 37.101562 29.726562 37.296875 C 29.925781 37.496094 30.152344 37.648438 30.410156 37.753906 C 30.667969 37.863281 30.9375 37.917969 31.21875 37.917969 L 37.546875 37.917969 L 37.546875 44.246094 C 37.546875 44.523438 37.597656 44.792969 37.707031 45.050781 C 37.8125 45.308594 37.964844 45.539062 38.164062 45.734375 C 38.363281 45.933594 38.589844 46.085938 38.847656 46.191406 C 39.105469 46.300781 39.375 46.355469 39.65625 46.355469 C 39.933594 46.355469 40.203125 46.300781 40.460938 46.191406 C 40.722656 46.085938 40.949219 45.933594 41.148438 45.734375 C 41.34375 45.539062 41.496094 45.308594 41.605469 45.050781 C 41.710938 44.792969 41.765625 44.523438 41.765625 44.246094 L 41.765625 37.917969 L 48.09375 37.917969 C 48.371094 37.917969 48.640625 37.863281 48.898438 37.753906 C 49.160156 37.648438 49.386719 37.496094 49.585938 37.296875 C 49.78125 37.101562 49.933594 36.871094 50.042969 36.613281 C 50.148438 36.355469 50.203125 36.085938 50.203125 35.808594 C 50.203125 35.527344 50.148438 35.257812 50.042969 35 C 49.933594 34.742188 49.78125 34.511719 49.585938 34.316406 C 49.386719 34.117188 49.160156 33.964844 48.898438 33.859375 C 48.640625 33.75 48.371094 33.699219 48.09375 33.699219 L 41.765625 33.699219 Z M 41.765625 27.371094 " fill-opacity="1" fill-rule="nonzero"/><g clip-path="url(#id1)"><path fill="#363062" d="M 5.90625 8.386719 C 5.625 8.386719 5.355469 8.4375 5.097656 8.546875 C 4.839844 8.652344 4.613281 8.804688 4.414062 9.003906 C 4.214844 9.199219 4.0625 9.429688 3.957031 9.6875 C 3.847656 9.945312 3.796875 10.214844 3.796875 10.496094 C 3.796875 10.773438 3.847656 11.042969 3.957031 11.300781 C 4.0625 11.558594 4.214844 11.789062 4.414062 11.984375 C 4.613281 12.183594 4.839844 12.335938 5.097656 12.445312 C 5.355469 12.550781 5.625 12.605469 5.90625 12.605469 L 10.589844 12.605469 L 12.28125 19.382812 L 18.597656 53.070312 C 18.644531 53.3125 18.730469 53.539062 18.855469 53.75 C 18.980469 53.960938 19.136719 54.148438 19.324219 54.304688 C 19.515625 54.460938 19.722656 54.582031 19.957031 54.664062 C 20.1875 54.75 20.425781 54.792969 20.671875 54.792969 L 24.890625 54.792969 C 24.335938 54.792969 23.785156 54.84375 23.242188 54.953125 C 22.699219 55.0625 22.171875 55.222656 21.660156 55.433594 C 21.148438 55.644531 20.664062 55.90625 20.203125 56.214844 C 19.742188 56.519531 19.316406 56.871094 18.921875 57.261719 C 18.53125 57.65625 18.183594 58.082031 17.875 58.542969 C 17.566406 59 17.304688 59.488281 17.09375 60 C 16.882812 60.511719 16.722656 61.039062 16.613281 61.582031 C 16.507812 62.125 16.453125 62.675781 16.453125 63.230469 C 16.453125 63.78125 16.507812 64.332031 16.613281 64.875 C 16.722656 65.417969 16.882812 65.945312 17.09375 66.457031 C 17.304688 66.96875 17.566406 67.457031 17.875 67.917969 C 18.183594 68.378906 18.53125 68.804688 18.921875 69.195312 C 19.316406 69.585938 19.742188 69.9375 20.203125 70.246094 C 20.664062 70.550781 21.148438 70.8125 21.660156 71.023438 C 22.171875 71.234375 22.699219 71.394531 23.242188 71.503906 C 23.785156 71.613281 24.335938 71.667969 24.890625 71.667969 C 25.445312 71.667969 25.992188 71.613281 26.535156 71.503906 C 27.078125 71.394531 27.605469 71.234375 28.117188 71.023438 C 28.628906 70.8125 29.117188 70.550781 29.578125 70.246094 C 30.039062 69.9375 30.464844 69.585938 30.855469 69.195312 C 31.246094 68.804688 31.597656 68.378906 31.90625 67.917969 C 32.214844 67.457031 32.472656 66.96875 32.683594 66.457031 C 32.898438 65.945312 33.058594 65.417969 33.164062 64.875 C 33.273438 64.332031 33.328125 63.78125 33.328125 63.230469 C 33.328125 62.675781 33.273438 62.125 33.164062 61.582031 C 33.058594 61.039062 32.898438 60.511719 32.683594 60 C 32.472656 59.488281 32.214844 59 31.90625 58.542969 C 31.597656 58.082031 31.246094 57.65625 30.855469 57.261719 C 30.464844 56.871094 30.039062 56.519531 29.578125 56.214844 C 29.117188 55.90625 28.628906 55.644531 28.117188 55.433594 C 27.605469 55.222656 27.078125 55.0625 26.535156 54.953125 C 25.992188 54.84375 25.445312 54.792969 24.890625 54.792969 L 54.421875 54.792969 C 53.867188 54.792969 53.316406 54.84375 52.773438 54.953125 C 52.230469 55.0625 51.703125 55.222656 51.191406 55.433594 C 50.679688 55.644531 50.195312 55.90625 49.734375 56.214844 C 49.273438 56.519531 48.847656 56.871094 48.453125 57.261719 C 48.0625 57.65625 47.714844 58.082031 47.40625 58.542969 C 47.097656 59 46.835938 59.488281 46.625 60 C 46.414062 60.511719 46.253906 61.039062 46.144531 61.582031 C 46.039062 62.125 45.984375 62.675781 45.984375 63.230469 C 45.984375 63.78125 46.039062 64.332031 46.144531 64.875 C 46.253906 65.417969 46.414062 65.945312 46.625 66.457031 C 46.835938 66.96875 47.097656 67.457031 47.40625 67.917969 C 47.714844 68.378906 48.0625 68.804688 48.453125 69.195312 C 48.847656 69.585938 49.273438 69.9375 49.734375 70.246094 C 50.195312 70.550781 50.679688 70.8125 51.191406 71.023438 C 51.703125 71.234375 52.230469 71.394531 52.773438 71.503906 C 53.316406 71.613281 53.867188 71.667969 54.421875 71.667969 C 54.976562 71.667969 55.523438 71.613281 56.066406 71.503906 C 56.609375 71.394531 57.136719 71.234375 57.648438 71.023438 C 58.160156 70.8125 58.648438 70.550781 59.109375 70.246094 C 59.570312 69.9375 59.996094 69.585938 60.386719 69.195312 C 60.777344 68.804688 61.128906 68.378906 61.4375 67.917969 C 61.746094 67.457031 62.003906 66.96875 62.214844 66.457031 C 62.429688 65.945312 62.589844 65.417969 62.695312 64.875 C 62.804688 64.332031 62.859375 63.78125 62.859375 63.230469 C 62.859375 62.675781 62.804688 62.125 62.695312 61.582031 C 62.589844 61.039062 62.429688 60.511719 62.214844 60 C 62.003906 59.488281 61.746094 59 61.4375 58.542969 C 61.128906 58.082031 60.777344 57.65625 60.386719 57.261719 C 59.996094 56.871094 59.570312 56.519531 59.109375 56.214844 C 58.648438 55.90625 58.160156 55.644531 57.648438 55.433594 C 57.136719 55.222656 56.609375 55.0625 56.066406 54.953125 C 55.523438 54.84375 54.976562 54.792969 54.421875 54.792969 L 58.640625 54.792969 C 58.886719 54.792969 59.125 54.75 59.355469 54.664062 C 59.585938 54.582031 59.796875 54.460938 59.984375 54.304688 C 60.175781 54.148438 60.332031 53.960938 60.457031 53.75 C 60.582031 53.539062 60.664062 53.3125 60.710938 53.070312 L 67.039062 19.320312 C 67.097656 19.011719 67.085938 18.707031 67.007812 18.402344 C 66.929688 18.097656 66.789062 17.828125 66.589844 17.585938 C 66.390625 17.34375 66.148438 17.15625 65.863281 17.023438 C 65.578125 16.890625 65.28125 16.824219 64.96875 16.824219 L 15.988281 16.824219 L 14.28125 9.984375 C 14.222656 9.753906 14.128906 9.542969 14 9.347656 C 13.875 9.148438 13.71875 8.976562 13.53125 8.832031 C 13.347656 8.6875 13.140625 8.578125 12.921875 8.5 C 12.699219 8.421875 12.46875 8.386719 12.234375 8.386719 Z M 22.421875 50.574219 L 16.882812 21.042969 L 62.429688 21.042969 L 56.890625 50.574219 Z M 29.109375 63.230469 C 29.109375 63.507812 29.082031 63.78125 29.027344 64.050781 C 28.972656 64.324219 28.894531 64.585938 28.789062 64.84375 C 28.679688 65.097656 28.550781 65.34375 28.398438 65.574219 C 28.242188 65.804688 28.070312 66.015625 27.871094 66.210938 C 27.675781 66.40625 27.464844 66.582031 27.234375 66.738281 C 27.003906 66.890625 26.761719 67.019531 26.503906 67.125 C 26.25 67.234375 25.984375 67.3125 25.710938 67.367188 C 25.441406 67.421875 25.167969 67.449219 24.890625 67.449219 C 24.613281 67.449219 24.339844 67.421875 24.066406 67.367188 C 23.796875 67.3125 23.53125 67.234375 23.273438 67.125 C 23.019531 67.019531 22.777344 66.890625 22.546875 66.738281 C 22.316406 66.582031 22.101562 66.40625 21.90625 66.210938 C 21.710938 66.015625 21.535156 65.804688 21.382812 65.574219 C 21.226562 65.34375 21.097656 65.097656 20.992188 64.84375 C 20.886719 64.585938 20.804688 64.324219 20.753906 64.050781 C 20.699219 63.78125 20.671875 63.507812 20.671875 63.230469 C 20.671875 62.953125 20.699219 62.675781 20.753906 62.40625 C 20.804688 62.132812 20.886719 61.871094 20.992188 61.613281 C 21.097656 61.359375 21.226562 61.117188 21.382812 60.886719 C 21.535156 60.65625 21.710938 60.441406 21.90625 60.246094 C 22.101562 60.050781 22.316406 59.875 22.546875 59.722656 C 22.777344 59.566406 23.019531 59.4375 23.273438 59.332031 C 23.53125 59.226562 23.796875 59.144531 24.066406 59.089844 C 24.339844 59.039062 24.613281 59.011719 24.890625 59.011719 C 25.167969 59.011719 25.441406 59.039062 25.710938 59.089844 C 25.984375 59.144531 26.25 59.226562 26.503906 59.332031 C 26.761719 59.4375 27.003906 59.566406 27.234375 59.722656 C 27.464844 59.875 27.675781 60.050781 27.871094 60.246094 C 28.070312 60.441406 28.242188 60.65625 28.398438 60.886719 C 28.550781 61.117188 28.679688 61.359375 28.789062 61.613281 C 28.894531 61.871094 28.972656 62.132812 29.027344 62.40625 C 29.082031 62.675781 29.109375 62.953125 29.109375 63.230469 Z M 58.640625 63.230469 C 58.640625 63.507812 58.613281 63.78125 58.558594 64.050781 C 58.503906 64.324219 58.425781 64.585938 58.320312 64.84375 C 58.210938 65.097656 58.082031 65.34375 57.929688 65.574219 C 57.773438 65.804688 57.601562 66.015625 57.402344 66.210938 C 57.207031 66.40625 56.996094 66.582031 56.765625 66.738281 C 56.535156 66.890625 56.292969 67.019531 56.035156 67.125 C 55.78125 67.234375 55.515625 67.3125 55.242188 67.367188 C 54.972656 67.421875 54.699219 67.449219 54.421875 67.449219 C 54.144531 67.449219 53.871094 67.421875 53.597656 67.367188 C 53.328125 67.3125 53.0625 67.234375 52.804688 67.125 C 52.550781 67.019531 52.308594 66.890625 52.078125 66.738281 C 51.847656 66.582031 51.632812 66.40625 51.4375 66.210938 C 51.242188 66.015625 51.066406 65.804688 50.914062 65.574219 C 50.757812 65.34375 50.628906 65.097656 50.523438 64.84375 C 50.417969 64.585938 50.335938 64.324219 50.285156 64.050781 C 50.230469 63.78125 50.203125 63.507812 50.203125 63.230469 C 50.203125 62.953125 50.230469 62.675781 50.285156 62.40625 C 50.335938 62.132812 50.417969 61.871094 50.523438 61.613281 C 50.628906 61.359375 50.757812 61.117188 50.914062 60.886719 C 51.066406 60.65625 51.242188 60.441406 51.4375 60.246094 C 51.632812 60.050781 51.847656 59.875 52.078125 59.722656 C 52.308594 59.566406 52.550781 59.4375 52.804688 59.332031 C 53.0625 59.226562 53.328125 59.144531 53.597656 59.089844 C 53.871094 59.039062 54.144531 59.011719 54.421875 59.011719 C 54.699219 59.011719 54.972656 59.039062 55.242188 59.089844 C 55.515625 59.144531 55.78125 59.226562 56.035156 59.332031 C 56.292969 59.4375 56.535156 59.566406 56.765625 59.722656 C 56.996094 59.875 57.207031 60.050781 57.402344 60.246094 C 57.601562 60.441406 57.773438 60.65625 57.929688 60.886719 C 58.082031 61.117188 58.210938 61.359375 58.320312 61.613281 C 58.425781 61.871094 58.503906 62.132812 58.558594 62.40625 C 58.613281 62.675781 58.640625 62.953125 58.640625 63.230469 Z M 58.640625 63.230469 " fill-opacity="1" fill-rule="nonzero"/></g></svg>