<svg xmlns="http://www.w3.org/2000/svg" xmlns:xlink="http://www.w3.org/1999/xlink" width="100" zoomAndPan="magnify" viewBox="0 0 75 74.999997" height="100" preserveAspectRatio="xMidYMid meet" version="1.0"><defs><clipPath id="id1"><path d="M 3.425781 7 L 68 7 L 68 71.675781 L 3.425781 71.675781 Z M 3.425781 7 " clip-rule="nonzero"/></clipPath></defs><g clip-path="url(#id1)"><path fill="rgb(21.179199%, 18.818665%, 38.42926%)" d="M 3.425781 9.824219 C 3.425781 9.539062 3.480469 9.269531 3.585938 9.007812 C 3.695312 8.746094 3.851562 8.515625 4.050781 8.316406 C 4.25 8.117188 4.480469 7.960938 4.742188 7.851562 C 5.003906 7.746094 5.273438 7.691406 5.558594 7.691406 L 11.957031 7.691406 C 12.195312 7.691406 12.425781 7.730469 12.652344 7.808594 C 12.875 7.886719 13.082031 7.996094 13.269531 8.144531 C 13.457031 8.289062 13.617188 8.460938 13.746094 8.664062 C 13.875 8.863281 13.96875 9.078125 14.027344 9.308594 L 15.753906 16.222656 L 65.277344 16.222656 C 65.59375 16.222656 65.894531 16.289062 66.183594 16.425781 C 66.46875 16.558594 66.714844 16.75 66.917969 16.992188 C 67.117188 17.238281 67.261719 17.511719 67.339844 17.820312 C 67.417969 18.125 67.429688 18.4375 67.371094 18.746094 L 60.972656 52.871094 C 60.925781 53.117188 60.839844 53.347656 60.714844 53.5625 C 60.589844 53.773438 60.429688 53.960938 60.238281 54.121094 C 60.046875 54.28125 59.835938 54.402344 59.601562 54.484375 C 59.367188 54.570312 59.128906 54.613281 58.878906 54.613281 L 20.488281 54.613281 C 20.238281 54.613281 20 54.570312 19.765625 54.484375 C 19.53125 54.402344 19.316406 54.28125 19.125 54.121094 C 18.9375 53.960938 18.777344 53.773438 18.652344 53.5625 C 18.523438 53.347656 18.4375 53.117188 18.394531 52.871094 L 12 18.8125 L 10.292969 11.957031 L 5.558594 11.957031 C 5.273438 11.957031 5.003906 11.902344 4.742188 11.792969 C 4.480469 11.6875 4.25 11.53125 4.050781 11.332031 C 3.851562 11.132812 3.695312 10.902344 3.585938 10.640625 C 3.480469 10.378906 3.425781 10.105469 3.425781 9.824219 Z M 16.65625 20.488281 L 22.257812 50.347656 L 57.109375 50.347656 L 62.710938 20.488281 Z M 24.753906 54.613281 C 24.191406 54.613281 23.636719 54.667969 23.089844 54.777344 C 22.539062 54.886719 22.007812 55.046875 21.488281 55.261719 C 20.972656 55.476562 20.480469 55.738281 20.015625 56.050781 C 19.546875 56.363281 19.117188 56.714844 18.722656 57.113281 C 18.324219 57.507812 17.972656 57.9375 17.660156 58.40625 C 17.347656 58.871094 17.085938 59.363281 16.871094 59.878906 C 16.65625 60.398438 16.496094 60.929688 16.386719 61.480469 C 16.277344 62.027344 16.222656 62.582031 16.222656 63.144531 C 16.222656 63.703125 16.277344 64.257812 16.386719 64.808594 C 16.496094 65.359375 16.65625 65.890625 16.871094 66.410156 C 17.085938 66.925781 17.347656 67.417969 17.660156 67.882812 C 17.972656 68.351562 18.324219 68.78125 18.722656 69.175781 C 19.117188 69.574219 19.546875 69.925781 20.015625 70.238281 C 20.480469 70.546875 20.972656 70.8125 21.488281 71.027344 C 22.007812 71.242188 22.539062 71.402344 23.089844 71.511719 C 23.636719 71.621094 24.191406 71.675781 24.753906 71.675781 C 25.3125 71.675781 25.867188 71.621094 26.417969 71.511719 C 26.96875 71.402344 27.5 71.242188 28.019531 71.027344 C 28.535156 70.8125 29.027344 70.546875 29.492188 70.238281 C 29.960938 69.925781 30.390625 69.574219 30.785156 69.175781 C 31.183594 68.78125 31.535156 68.351562 31.847656 67.882812 C 32.160156 67.417969 32.421875 66.925781 32.636719 66.410156 C 32.851562 65.890625 33.011719 65.359375 33.121094 64.808594 C 33.230469 64.257812 33.285156 63.703125 33.285156 63.144531 C 33.285156 62.582031 33.230469 62.027344 33.121094 61.480469 C 33.011719 60.929688 32.851562 60.398438 32.636719 59.878906 C 32.421875 59.363281 32.160156 58.871094 31.847656 58.40625 C 31.535156 57.9375 31.183594 57.507812 30.785156 57.113281 C 30.390625 56.714844 29.960938 56.363281 29.492188 56.050781 C 29.027344 55.738281 28.535156 55.476562 28.019531 55.261719 C 27.5 55.046875 26.96875 54.886719 26.417969 54.777344 C 25.867188 54.667969 25.3125 54.613281 24.753906 54.613281 Z M 54.613281 54.613281 C 54.050781 54.613281 53.496094 54.667969 52.949219 54.777344 C 52.398438 54.886719 51.867188 55.046875 51.347656 55.261719 C 50.832031 55.476562 50.339844 55.738281 49.875 56.050781 C 49.40625 56.363281 48.976562 56.714844 48.582031 57.113281 C 48.183594 57.507812 47.832031 57.9375 47.519531 58.40625 C 47.207031 58.871094 46.945312 59.363281 46.730469 59.878906 C 46.515625 60.398438 46.355469 60.929688 46.246094 61.480469 C 46.136719 62.027344 46.082031 62.582031 46.082031 63.144531 C 46.082031 63.703125 46.136719 64.257812 46.246094 64.808594 C 46.355469 65.359375 46.515625 65.890625 46.730469 66.410156 C 46.945312 66.925781 47.207031 67.417969 47.519531 67.882812 C 47.832031 68.351562 48.183594 68.78125 48.582031 69.175781 C 48.976562 69.574219 49.40625 69.925781 49.875 70.238281 C 50.339844 70.546875 50.832031 70.8125 51.347656 71.027344 C 51.867188 71.242188 52.398438 71.402344 52.949219 71.511719 C 53.496094 71.621094 54.050781 71.675781 54.613281 71.675781 C 55.171875 71.675781 55.726562 71.621094 56.277344 71.511719 C 56.828125 71.402344 57.359375 71.242188 57.878906 71.027344 C 58.394531 70.8125 58.886719 70.546875 59.351562 70.238281 C 59.820312 69.925781 60.25 69.574219 60.644531 69.175781 C 61.042969 68.78125 61.394531 68.351562 61.707031 67.882812 C 62.019531 67.417969 62.28125 66.925781 62.496094 66.410156 C 62.710938 65.890625 62.871094 65.359375 62.980469 64.808594 C 63.089844 64.257812 63.144531 63.703125 63.144531 63.144531 C 63.144531 62.582031 63.089844 62.027344 62.980469 61.480469 C 62.871094 60.929688 62.710938 60.398438 62.496094 59.878906 C 62.28125 59.363281 62.019531 58.871094 61.707031 58.40625 C 61.394531 57.9375 61.042969 57.507812 60.644531 57.113281 C 60.25 56.714844 59.820312 56.363281 59.351562 56.050781 C 58.886719 55.738281 58.394531 55.476562 57.878906 55.261719 C 57.359375 55.046875 56.828125 54.886719 56.277344 54.777344 C 55.726562 54.667969 55.171875 54.613281 54.613281 54.613281 Z M 24.753906 58.878906 C 25.035156 58.878906 25.3125 58.90625 25.585938 58.960938 C 25.859375 59.015625 26.128906 59.097656 26.386719 59.203125 C 26.644531 59.308594 26.890625 59.441406 27.125 59.597656 C 27.355469 59.753906 27.570312 59.929688 27.769531 60.128906 C 27.96875 60.324219 28.144531 60.542969 28.300781 60.773438 C 28.457031 61.007812 28.585938 61.253906 28.695312 61.511719 C 28.800781 61.769531 28.882812 62.039062 28.9375 62.3125 C 28.992188 62.585938 29.019531 62.863281 29.019531 63.144531 C 29.019531 63.425781 28.992188 63.703125 28.9375 63.976562 C 28.882812 64.25 28.800781 64.519531 28.695312 64.777344 C 28.585938 65.035156 28.457031 65.28125 28.300781 65.515625 C 28.144531 65.746094 27.96875 65.960938 27.769531 66.160156 C 27.570312 66.359375 27.355469 66.535156 27.125 66.691406 C 26.890625 66.847656 26.644531 66.976562 26.386719 67.085938 C 26.128906 67.191406 25.859375 67.273438 25.585938 67.328125 C 25.3125 67.382812 25.035156 67.410156 24.753906 67.410156 C 24.472656 67.410156 24.195312 67.382812 23.921875 67.328125 C 23.648438 67.273438 23.378906 67.191406 23.121094 67.085938 C 22.863281 66.976562 22.617188 66.847656 22.382812 66.691406 C 22.152344 66.535156 21.933594 66.359375 21.738281 66.160156 C 21.539062 65.960938 21.363281 65.746094 21.207031 65.515625 C 21.050781 65.28125 20.917969 65.035156 20.8125 64.777344 C 20.707031 64.519531 20.625 64.25 20.570312 63.976562 C 20.515625 63.703125 20.488281 63.425781 20.488281 63.144531 C 20.488281 62.863281 20.515625 62.585938 20.570312 62.3125 C 20.625 62.039062 20.707031 61.769531 20.8125 61.511719 C 20.917969 61.253906 21.050781 61.007812 21.207031 60.773438 C 21.363281 60.542969 21.539062 60.324219 21.738281 60.128906 C 21.933594 59.929688 22.152344 59.753906 22.382812 59.597656 C 22.617188 59.441406 22.863281 59.308594 23.121094 59.203125 C 23.378906 59.097656 23.648438 59.015625 23.921875 58.960938 C 24.195312 58.90625 24.472656 58.878906 24.753906 58.878906 Z M 54.613281 58.878906 C 54.894531 58.878906 55.171875 58.90625 55.445312 58.960938 C 55.71875 59.015625 55.988281 59.097656 56.246094 59.203125 C 56.503906 59.308594 56.75 59.441406 56.984375 59.597656 C 57.214844 59.753906 57.429688 59.929688 57.628906 60.128906 C 57.828125 60.324219 58.003906 60.542969 58.160156 60.773438 C 58.316406 61.007812 58.445312 61.253906 58.554688 61.511719 C 58.660156 61.769531 58.742188 62.039062 58.796875 62.3125 C 58.851562 62.585938 58.878906 62.863281 58.878906 63.144531 C 58.878906 63.425781 58.851562 63.703125 58.796875 63.976562 C 58.742188 64.25 58.660156 64.519531 58.554688 64.777344 C 58.445312 65.035156 58.316406 65.28125 58.160156 65.515625 C 58.003906 65.746094 57.828125 65.960938 57.628906 66.160156 C 57.429688 66.359375 57.214844 66.535156 56.984375 66.691406 C 56.75 66.847656 56.503906 66.976562 56.246094 67.085938 C 55.988281 67.191406 55.71875 67.273438 55.445312 67.328125 C 55.171875 67.382812 54.894531 67.410156 54.613281 67.410156 C 54.332031 67.410156 54.054688 67.382812 53.78125 67.328125 C 53.507812 67.273438 53.238281 67.191406 52.980469 67.085938 C 52.722656 66.976562 52.476562 66.847656 52.242188 66.691406 C 52.011719 66.535156 51.792969 66.359375 51.597656 66.160156 C 51.398438 65.960938 51.222656 65.746094 51.066406 65.515625 C 50.910156 65.28125 50.777344 65.035156 50.671875 64.777344 C 50.566406 64.519531 50.484375 64.25 50.429688 63.976562 C 50.375 63.703125 50.347656 63.425781 50.347656 63.144531 C 50.347656 62.863281 50.375 62.585938 50.429688 62.3125 C 50.484375 62.039062 50.566406 61.769531 50.671875 61.511719 C 50.777344 61.253906 50.910156 61.007812 51.066406 60.773438 C 51.222656 60.542969 51.398438 60.324219 51.597656 60.128906 C 51.792969 59.929688 52.011719 59.753906 52.242188 59.597656 C 52.476562 59.441406 52.722656 59.308594 52.980469 59.203125 C 53.238281 59.097656 53.507812 59.015625 53.78125 58.960938 C 54.054688 58.90625 54.332031 58.878906 54.613281 58.878906 Z M 54.613281 58.878906 " fill-opacity="1" fill-rule="nonzero"/></g></svg>