<svg xmlns="http://www.w3.org/2000/svg" xmlns:xlink="http://www.w3.org/1999/xlink" width="100" zoomAndPan="magnify" viewBox="0 0 75 74.999997" height="100" preserveAspectRatio="xMidYMid meet" version="1.0"><defs><clipPath id="id1"><path d="M 11.699219 7 L 63.449219 7 L 63.449219 68.765625 L 11.699219 68.765625 Z M 11.699219 7 " clip-rule="nonzero"/></clipPath></defs><g clip-path="url(#id1)"><path fill="rgb(0%, 39.99939%, 100%)" d="M 61.90625 23.519531 C 60.890625 22.355469 59.421875 21.675781 57.878906 21.675781 L 50.144531 21.675781 L 50.144531 19.71875 C 50.144531 12.75 44.484375 7.097656 37.542969 7.097656 C 30.605469 7.097656 24.945312 12.765625 24.945312 19.71875 L 24.945312 21.675781 L 17.210938 21.675781 C 15.667969 21.675781 14.199219 22.355469 13.183594 23.519531 C 12.167969 24.679688 11.714844 26.242188 11.917969 27.773438 L 16.785156 62.679688 C 17.226562 65.859375 19.976562 68.246094 23.167969 68.246094 L 51.894531 68.246094 C 55.085938 68.246094 57.832031 65.859375 58.289062 62.679688 L 63.15625 27.773438 C 63.390625 26.242188 62.921875 24.695312 61.90625 23.519531 Z M 29.355469 19.71875 C 29.355469 15.195312 33.03125 11.515625 37.542969 11.515625 C 42.058594 11.515625 45.734375 15.195312 45.734375 19.71875 L 45.734375 21.675781 L 29.355469 21.675781 Z M 42.957031 53.769531 L 37.839844 48.644531 L 34.25 52.238281 L 29.53125 36.890625 L 44.851562 41.617188 L 41.265625 45.210938 L 46.378906 50.335938 Z M 42.957031 53.769531 " fill-opacity="1" fill-rule="nonzero"/></g></svg>